<?xml version="1.0" encoding="UTF-8"?>
<svg version="1.1" viewBox="0 0 358.41 336" xmlns="http://www.w3.org/2000/svg">
 <g transform="translate(-170.8 -112)" fill="#2c3e50">
  <path d="m462 134.4c0 12.371-10.027 22.402-22.398 22.402s-22.402-10.031-22.402-22.402 10.031-22.398 22.402-22.398 22.398 10.027 22.398 22.398"/>
  <path d="m506.8 201.6c0 12.371-10.031 22.398-22.402 22.398s-22.398-10.027-22.398-22.398 10.027-22.402 22.398-22.402 22.402 10.031 22.402 22.402"/>
  <path d="m417.2 201.6c0 12.371-10.027 22.398-22.398 22.398s-22.402-10.027-22.402-22.398 10.031-22.402 22.402-22.402 22.398 10.031 22.398 22.402"/>
  <path d="m506.8 246.4h-179.2v-134.4h-44.801v92.961l-63.73-79.633-35 28 74.539 93.07h-65.41c-5.9414 0-11.637 2.3633-15.84 6.5625-4.1992 4.1992-6.5586 9.8984-6.5586 15.84v22.398c-0.10938 30.98 7.8789 61.453 23.172 88.398 15.293 26.941 37.363 49.422 64.02 65.211 3.4844 2.0898 7.4727 3.1953 11.535 3.1914h160.95c4.0625 4e-3 8.0508-1.1016 11.535-3.1914 26.656-15.789 48.727-38.27 64.02-65.211 15.293-26.945 23.281-57.418 23.172-88.398v-22.398c0-5.9414-2.3594-11.641-6.5586-15.84-4.2031-4.1992-9.8984-6.5625-15.84-6.5625zm-82.77 156.8h-148.06c-37.801-24.691-60.523-66.848-60.367-112h268.8c0.15625 45.152-22.566 87.309-60.367 112z"/>
 </g>
</svg>
